<svg width="89" height="27" viewBox="0 0 89 27" fill="none" xmlns="http://www.w3.org/2000/svg">
<path d="M5.27344 21.709H16.4707V25.9453H0V0.351562H5.27344V21.709ZM39.4102 13.7285C39.4102 16.248 38.9648 18.457 38.0742 20.3555C37.1836 22.2539 35.9062 23.7188 34.2422 24.75C32.5898 25.7812 30.6914 26.2969 28.5469 26.2969C26.4258 26.2969 24.5332 25.7871 22.8691 24.7676C21.2051 23.748 19.916 22.2949 19.002 20.4082C18.0879 18.5098 17.625 16.3301 17.6133 13.8691V12.6035C17.6133 10.084 18.0645 7.86914 18.9668 5.95898C19.8809 4.03711 21.1641 2.56641 22.8164 1.54688C24.4805 0.515625 26.3789 0 28.5117 0C30.6445 0 32.5371 0.515625 34.1895 1.54688C35.8535 2.56641 37.1367 4.03711 38.0391 5.95898C38.9531 7.86914 39.4102 10.0781 39.4102 12.5859V13.7285ZM34.0664 12.5684C34.0664 9.88477 33.5859 7.8457 32.625 6.45117C31.6641 5.05664 30.293 4.35938 28.5117 4.35938C26.7422 4.35938 25.377 5.05078 24.416 6.43359C23.4551 7.80469 22.9688 9.82031 22.957 12.4805V13.7285C22.957 16.3418 23.4375 18.3691 24.3984 19.8105C25.3594 21.252 26.7422 21.9727 28.5469 21.9727C30.3164 21.9727 31.6758 21.2812 32.625 19.8984C33.5742 18.5039 34.0547 16.4766 34.0664 13.8164V12.5684ZM63.4922 22.7109C62.543 23.8477 61.2012 24.7324 59.4668 25.3652C57.7324 25.9863 55.8105 26.2969 53.7012 26.2969C51.4863 26.2969 49.541 25.8164 47.8652 24.8555C46.2012 23.8828 44.9121 22.4766 43.998 20.6367C43.0957 18.7969 42.6328 16.6348 42.6094 14.1504V12.4102C42.6094 9.85547 43.0371 7.64648 43.8926 5.7832C44.7598 3.9082 46.002 2.47852 47.6191 1.49414C49.248 0.498047 51.1523 0 53.332 0C56.3672 0 58.7402 0.726562 60.4512 2.17969C62.1621 3.62109 63.1758 5.72461 63.4922 8.49023H58.3594C58.125 7.02539 57.6035 5.95313 56.7949 5.27344C55.998 4.59375 54.8965 4.25391 53.4902 4.25391C51.6973 4.25391 50.332 4.92773 49.3945 6.27539C48.457 7.62305 47.9824 9.62695 47.9707 12.2871V13.9219C47.9707 16.6055 48.4805 18.6328 49.5 20.0039C50.5195 21.375 52.0137 22.0605 53.9824 22.0605C55.9629 22.0605 57.375 21.6387 58.2188 20.7949V16.3828H53.4199V12.498H63.4922V22.7109ZM88.8047 13.7285C88.8047 16.248 88.3594 18.457 87.4688 20.3555C86.5781 22.2539 85.3008 23.7188 83.6367 24.75C81.9844 25.7812 80.0859 26.2969 77.9414 26.2969C75.8203 26.2969 73.9277 25.7871 72.2637 24.7676C70.5996 23.748 69.3105 22.2949 68.3965 20.4082C67.4824 18.5098 67.0195 16.3301 67.0078 13.8691V12.6035C67.0078 10.084 67.459 7.86914 68.3613 5.95898C69.2754 4.03711 70.5586 2.56641 72.2109 1.54688C73.875 0.515625 75.7734 0 77.9062 0C80.0391 0 81.9316 0.515625 83.584 1.54688C85.248 2.56641 86.5312 4.03711 87.4336 5.95898C88.3477 7.86914 88.8047 10.0781 88.8047 12.5859V13.7285ZM83.4609 12.5684C83.4609 9.88477 82.9805 7.8457 82.0195 6.45117C81.0586 5.05664 79.6875 4.35938 77.9062 4.35938C76.1367 4.35938 74.7715 5.05078 73.8105 6.43359C72.8496 7.80469 72.3633 9.82031 72.3516 12.4805V13.7285C72.3516 16.3418 72.832 18.3691 73.793 19.8105C74.7539 21.252 76.1367 21.9727 77.9414 21.9727C79.7109 21.9727 81.0703 21.2812 82.0195 19.8984C82.9688 18.5039 83.4492 16.4766 83.4609 13.8164V12.5684Z" fill="#0A2541"/>
</svg>
